<mxfile host="app.diagrams.net" agent="Mozilla/5.0 (Windows NT 10.0; Win64; x64) AppleWebKit/537.36 (KHTML, like Gecko) Chrome/135.0.0.0 Safari/537.36" version="26.2.13">
  <diagram id="07fea595-8f29-1299-0266-81d95cde20df" name="Page-1">
    <mxGraphModel dx="-755" dy="170" grid="1" gridSize="10" guides="0" tooltips="1" connect="1" arrows="1" fold="1" page="1" pageScale="1" pageWidth="1169" pageHeight="827" background="none" math="0" shadow="0">
      <root>
        <mxCell id="0" />
        <mxCell id="1" parent="0" />
        <mxCell id="723" value="" style="whiteSpace=wrap;fillColor=#dae8fc;gradientDirection=east;strokeColor=#6c8ebf;html=1;fontFamily=Times New Roman;fontSize=16;" parent="1" vertex="1">
          <mxGeometry x="2470" y="1370" width="40" height="228.75" as="geometry" />
        </mxCell>
        <mxCell id="724" value="" style="whiteSpace=wrap;fillColor=#E1D5E7;gradientDirection=east;strokeColor=#6c8ebf;html=1;shadow=0;fillStyle=zigzag-line;textShadow=0;fontFamily=Times New Roman;fontSize=16;" parent="1" vertex="1">
          <mxGeometry x="2510" y="1430" width="40" height="168.75" as="geometry" />
        </mxCell>
        <mxCell id="727" value="" style="edgeStyle=none;html=1;fontColor=#000000;strokeWidth=3;strokeColor=#000000;fontFamily=Times New Roman;fontSize=16;" parent="1" edge="1">
          <mxGeometry width="100" height="100" relative="1" as="geometry">
            <mxPoint x="2438" y="1599" as="sourcePoint" />
            <mxPoint x="2438" y="1260" as="targetPoint" />
          </mxGeometry>
        </mxCell>
        <mxCell id="728" value="" style="whiteSpace=wrap;fillColor=#ffe6cc;gradientDirection=east;strokeColor=#d79b00;html=1;fillStyle=zigzag-line;fontFamily=Times New Roman;fontSize=16;" parent="1" vertex="1">
          <mxGeometry x="2620" y="1470" width="40" height="128.5" as="geometry" />
        </mxCell>
        <mxCell id="729" value="" style="whiteSpace=wrap;fillColor=#d5e8d4;gradientDirection=east;strokeColor=#82b366;html=1;fillStyle=zigzag-line;fontFamily=Times New Roman;fontSize=16;" parent="1" vertex="1">
          <mxGeometry x="2730" y="1511.5" width="40" height="87" as="geometry" />
        </mxCell>
        <mxCell id="730" value="" style="whiteSpace=wrap;fillColor=#f8cecc;gradientDirection=east;strokeColor=#b85450;html=1;fillStyle=zigzag-line;fontFamily=Times New Roman;fontSize=16;" parent="1" vertex="1">
          <mxGeometry x="2950" y="1358.75" width="40" height="238.75" as="geometry" />
        </mxCell>
        <mxCell id="731" value="" style="whiteSpace=wrap;fillColor=#fff2cc;gradientDirection=east;strokeColor=#d6b656;html=1;fillStyle=zigzag-line;fontFamily=Times New Roman;fontSize=16;" parent="1" vertex="1">
          <mxGeometry x="2840" y="1419" width="40" height="178.5" as="geometry" />
        </mxCell>
        <mxCell id="732" value="" style="whiteSpace=wrap;fillColor=#ffe6cc;gradientDirection=east;strokeColor=#d79b00;html=1;fontFamily=Times New Roman;fontSize=16;" parent="1" vertex="1">
          <mxGeometry x="2580" y="1350" width="40" height="248.75" as="geometry" />
        </mxCell>
        <mxCell id="733" value="" style="whiteSpace=wrap;fillColor=#d5e8d4;gradientDirection=east;strokeColor=#82b366;html=1;fontFamily=Times New Roman;fontSize=16;" parent="1" vertex="1">
          <mxGeometry x="2690" y="1402.5" width="40" height="196" as="geometry" />
        </mxCell>
        <mxCell id="734" value="" style="edgeStyle=none;html=1;fontColor=#000000;strokeWidth=3;strokeColor=#000000;fontFamily=Times New Roman;fontSize=16;" parent="1" edge="1">
          <mxGeometry width="100" height="100" relative="1" as="geometry">
            <mxPoint x="2438" y="1599" as="sourcePoint" />
            <mxPoint x="3070" y="1600" as="targetPoint" />
          </mxGeometry>
        </mxCell>
        <mxCell id="740" value="" style="whiteSpace=wrap;fillColor=#dae8fc;gradientDirection=east;strokeColor=#6c8ebf;html=1;fillStyle=zigzag-line;" parent="1" vertex="1">
          <mxGeometry x="2919.9999999999995" y="1270" width="35.000000000000114" height="30.000000000000227" as="geometry" />
        </mxCell>
        <mxCell id="741" value="" style="whiteSpace=wrap;fillColor=#dae8fc;gradientDirection=east;strokeColor=#6c8ebf;html=1;" parent="1" vertex="1">
          <mxGeometry x="2780" y="1270" width="35.000000000000114" height="30.000000000000114" as="geometry" />
        </mxCell>
        <mxCell id="742" value="&lt;font style=&quot;font-size: 16px;&quot; face=&quot;宋体&quot;&gt;直推设置&lt;/font&gt;" style="text;spacingTop=-5;html=1;points=[];fontSize=15;" parent="1" vertex="1">
          <mxGeometry x="2820" y="1280" width="80" height="20" as="geometry" />
        </mxCell>
        <mxCell id="743" value="&lt;font style=&quot;font-size: 16px;&quot; face=&quot;宋体&quot;&gt;归纳设置&lt;/font&gt;" style="text;spacingTop=-5;html=1;points=[];fontSize=15;" parent="1" vertex="1">
          <mxGeometry x="2963" y="1277" width="80" height="20" as="geometry" />
        </mxCell>
        <mxCell id="745" value="&lt;font&gt;MRR&lt;/font&gt;" style="text;spacingTop=-5;html=1;fontSize=16;fontStyle=0;points=[];fontFamily=Times New Roman;" parent="1" vertex="1">
          <mxGeometry x="2382.5" y="1260" width="80" height="20" as="geometry" />
        </mxCell>
        <mxCell id="746" value="5" style="text;spacingTop=-5;align=center;verticalAlign=middle;fontStyle=0;html=1;fontSize=16;points=[];fontFamily=Times New Roman;" parent="1" vertex="1">
          <mxGeometry x="2407.5" y="1539" width="30" height="46" as="geometry" />
        </mxCell>
        <mxCell id="750" value="" style="whiteSpace=wrap;fillColor=#f8cecc;gradientDirection=east;strokeColor=#b85450;html=1;fontFamily=Times New Roman;fontSize=16;" parent="1" vertex="1">
          <mxGeometry x="2910" y="1334.5" width="40" height="263" as="geometry" />
        </mxCell>
        <mxCell id="751" value="" style="whiteSpace=wrap;fillColor=#fff2cc;gradientDirection=east;strokeColor=#d6b656;html=1;fontFamily=Times New Roman;fontSize=16;" parent="1" vertex="1">
          <mxGeometry x="2800" y="1359.5" width="40" height="238" as="geometry" />
        </mxCell>
        <mxCell id="752" value="TiTer" style="text;spacingTop=-5;align=center;verticalAlign=middle;fontStyle=0;html=1;fontSize=16;points=[];strokeColor=none;fontFamily=Times New Roman;" parent="1" vertex="1">
          <mxGeometry x="2782.5" y="1607" width="120" height="30" as="geometry" />
        </mxCell>
        <mxCell id="T79YTn8RgPP93oUFXPmc-752" value="&lt;font&gt;29.31&lt;/font&gt;" style="text;html=1;align=center;verticalAlign=middle;whiteSpace=wrap;rounded=0;fontFamily=Times New Roman;fontSize=16;fontColor=default;labelBackgroundColor=none;" vertex="1" parent="1">
          <mxGeometry x="2450" y="1340" width="80" height="30" as="geometry" />
        </mxCell>
        <mxCell id="T79YTn8RgPP93oUFXPmc-753" value="RE-GCN" style="text;spacingTop=-5;align=center;verticalAlign=middle;fontStyle=0;html=1;fontSize=16;points=[];strokeColor=none;fontFamily=Times New Roman;" vertex="1" parent="1">
          <mxGeometry x="2560" y="1607" width="120" height="30" as="geometry" />
        </mxCell>
        <mxCell id="T79YTn8RgPP93oUFXPmc-755" value="xERTE" style="text;spacingTop=-5;align=center;verticalAlign=middle;fontStyle=0;html=1;fontSize=16;points=[];strokeColor=none;fontFamily=Times New Roman;" vertex="1" parent="1">
          <mxGeometry x="2450" y="1607" width="120" height="30" as="geometry" />
        </mxCell>
        <mxCell id="T79YTn8RgPP93oUFXPmc-758" value="CyGNet" style="text;spacingTop=-5;align=center;verticalAlign=middle;fontStyle=0;html=1;fontSize=16;points=[];strokeColor=none;fontFamily=Times New Roman;" vertex="1" parent="1">
          <mxGeometry x="2670" y="1607" width="120" height="30" as="geometry" />
        </mxCell>
        <mxCell id="T79YTn8RgPP93oUFXPmc-759" value="T-RMPN" style="text;spacingTop=-5;align=center;verticalAlign=middle;fontStyle=0;html=1;fontSize=16;points=[];strokeColor=none;fontFamily=Times New Roman;" vertex="1" parent="1">
          <mxGeometry x="2890" y="1607" width="120" height="30" as="geometry" />
        </mxCell>
        <mxCell id="T79YTn8RgPP93oUFXPmc-760" value="&lt;font&gt;30.58&lt;/font&gt;" style="text;html=1;align=center;verticalAlign=middle;whiteSpace=wrap;rounded=0;fontFamily=Times New Roman;fontSize=16;fontColor=default;labelBackgroundColor=none;" vertex="1" parent="1">
          <mxGeometry x="2565" y="1323" width="80" height="30" as="geometry" />
        </mxCell>
        <mxCell id="T79YTn8RgPP93oUFXPmc-761" value="&lt;font&gt;24.93&lt;/font&gt;" style="text;html=1;align=center;verticalAlign=middle;whiteSpace=wrap;rounded=0;fontFamily=Times New Roman;fontSize=16;fontColor=default;labelBackgroundColor=none;" vertex="1" parent="1">
          <mxGeometry x="2672.5" y="1372.5" width="80" height="30" as="geometry" />
        </mxCell>
        <mxCell id="T79YTn8RgPP93oUFXPmc-762" value="&lt;font&gt;29.98&lt;/font&gt;" style="text;html=1;align=center;verticalAlign=middle;whiteSpace=wrap;rounded=0;fontFamily=Times New Roman;fontSize=16;fontColor=default;labelBackgroundColor=none;" vertex="1" parent="1">
          <mxGeometry x="2780" y="1330.5" width="80" height="30" as="geometry" />
        </mxCell>
        <mxCell id="T79YTn8RgPP93oUFXPmc-763" value="&lt;font&gt;33.02&lt;/font&gt;" style="text;html=1;align=center;verticalAlign=middle;whiteSpace=wrap;rounded=0;fontFamily=Times New Roman;fontSize=16;fontColor=default;labelBackgroundColor=none;" vertex="1" parent="1">
          <mxGeometry x="2893" y="1309" width="80" height="30" as="geometry" />
        </mxCell>
        <mxCell id="T79YTn8RgPP93oUFXPmc-764" value="&lt;font&gt;20.52&lt;/font&gt;" style="text;html=1;align=center;verticalAlign=middle;whiteSpace=wrap;rounded=0;fontFamily=Times New Roman;fontSize=16;fontColor=default;labelBackgroundColor=none;" vertex="1" parent="1">
          <mxGeometry x="2497" y="1404" width="80" height="30" as="geometry" />
        </mxCell>
        <mxCell id="T79YTn8RgPP93oUFXPmc-766" value="&lt;font&gt;15.47&lt;/font&gt;" style="text;html=1;align=center;verticalAlign=middle;whiteSpace=wrap;rounded=0;fontFamily=Times New Roman;fontSize=16;fontColor=default;labelBackgroundColor=none;" vertex="1" parent="1">
          <mxGeometry x="2600" y="1440" width="80" height="30" as="geometry" />
        </mxCell>
        <mxCell id="T79YTn8RgPP93oUFXPmc-767" value="&lt;font&gt;11.64&lt;/font&gt;" style="text;html=1;align=center;verticalAlign=middle;whiteSpace=wrap;rounded=0;fontFamily=Times New Roman;fontSize=16;fontColor=default;labelBackgroundColor=none;" vertex="1" parent="1">
          <mxGeometry x="2710" y="1481.5" width="80" height="30" as="geometry" />
        </mxCell>
        <mxCell id="T79YTn8RgPP93oUFXPmc-768" value="&lt;font&gt;22.72&lt;/font&gt;" style="text;html=1;align=center;verticalAlign=middle;whiteSpace=wrap;rounded=0;fontFamily=Times New Roman;fontSize=16;fontColor=default;labelBackgroundColor=none;" vertex="1" parent="1">
          <mxGeometry x="2820" y="1390" width="80" height="30" as="geometry" />
        </mxCell>
        <mxCell id="T79YTn8RgPP93oUFXPmc-769" value="&lt;font&gt;31.58&lt;/font&gt;" style="text;html=1;align=center;verticalAlign=middle;whiteSpace=wrap;rounded=0;fontFamily=Times New Roman;fontSize=16;fontColor=default;labelBackgroundColor=none;" vertex="1" parent="1">
          <mxGeometry x="2930" y="1330.5" width="80" height="30" as="geometry" />
        </mxCell>
        <mxCell id="T79YTn8RgPP93oUFXPmc-770" value="10" style="text;spacingTop=-5;align=center;verticalAlign=middle;fontStyle=0;html=1;fontSize=16;points=[];fontFamily=Times New Roman;" vertex="1" parent="1">
          <mxGeometry x="2407.5" y="1498" width="30" height="46" as="geometry" />
        </mxCell>
        <mxCell id="T79YTn8RgPP93oUFXPmc-771" value="15" style="text;spacingTop=-5;align=center;verticalAlign=middle;fontStyle=0;html=1;fontSize=16;points=[];fontFamily=Times New Roman;" vertex="1" parent="1">
          <mxGeometry x="2407.5" y="1459" width="30" height="46" as="geometry" />
        </mxCell>
        <mxCell id="T79YTn8RgPP93oUFXPmc-773" value="20" style="text;spacingTop=-5;align=center;verticalAlign=middle;fontStyle=0;html=1;fontSize=16;points=[];fontFamily=Times New Roman;" vertex="1" parent="1">
          <mxGeometry x="2407.5" y="1419" width="30" height="46" as="geometry" />
        </mxCell>
        <mxCell id="T79YTn8RgPP93oUFXPmc-774" value="30" style="text;spacingTop=-5;align=center;verticalAlign=middle;fontStyle=0;html=1;fontSize=16;points=[];fontFamily=Times New Roman;" vertex="1" parent="1">
          <mxGeometry x="2407.5" y="1343" width="30" height="46" as="geometry" />
        </mxCell>
        <mxCell id="T79YTn8RgPP93oUFXPmc-775" value="25" style="text;spacingTop=-5;align=center;verticalAlign=middle;fontStyle=0;html=1;fontSize=16;points=[];fontFamily=Times New Roman;" vertex="1" parent="1">
          <mxGeometry x="2406" y="1381" width="30" height="46" as="geometry" />
        </mxCell>
        <mxCell id="T79YTn8RgPP93oUFXPmc-776" value="35" style="text;spacingTop=-5;align=center;verticalAlign=middle;fontStyle=0;html=1;fontSize=16;points=[];fontFamily=Times New Roman;" vertex="1" parent="1">
          <mxGeometry x="2407.5" y="1297" width="30" height="46" as="geometry" />
        </mxCell>
      </root>
    </mxGraphModel>
  </diagram>
</mxfile>
